<svg id="Слой_4" data-name="Слой 4" xmlns="http://www.w3.org/2000/svg" viewBox="0 0 258.25 35.42"><defs><style>.cls-1{fill:#5e8ecb}</style></defs><path class="cls-1" d="M67.43 17.69S36.92-21.77 0 17.69c0 0 18.82 24.33 44.79 15.66l-4.41-4.43a13.06 13.06 0 114.5-4.45l6.2 6.17a62.9 62.9 0 0016.35-12.95z" transform="translate(0 -.15)"/><path d="M46.78 17.69a13.07 13.07 0 10-6.4 11.23l4.41 4.43a40.52 40.52 0 006.29-2.71l-6.2-6.17a13 13 0 001.9-6.78zm-13.07 7a7 7 0 117-7 7 7 0 01-7 7z" transform="translate(0 -.15)" fill="#fff"/><circle class="cls-1" cx="33.71" cy="17.69" r="7" transform="rotate(-13.28 33.082 17.608)"/><path d="M72.89 1.73A35.93 35.93 0 0183.52.16Q97.65.16 97.65 12c0 4.25-1.2 7.44-3.62 9.54s-6.13 3.17-11.18 3.17H79v10.51h-6.11zm9.18 17.47c1.86 0 3.41-.05 4.65-.16a23.48 23.48 0 003.42-.56 11.87 11.87 0 001.45-6.16c0-2.36-.66-4-2-5S86.3 5.8 83.67 5.8a20.17 20.17 0 00-4.67.41v13zm20.22 13.3c-1.7-2-2.55-5-2.55-9q0-6.55 2.65-9.74c1.77-2.13 4.53-3.2 8.3-3.2q10.16 0 10.16 12 0 6.51-2.67 9.7c-1.77 2.13-4.55 3.19-8.31 3.19q-5.02.08-7.58-2.95zM115 30.87a18.69 18.69 0 001.56-7.57 17.13 17.13 0 00-.59-4.94 5 5 0 00-2-2.82 7.1 7.1 0 00-4-.94 12.3 12.3 0 00-4.6.71 18.67 18.67 0 00-1.37 7.56 16.89 16.89 0 00.6 5 5 5 0 002 2.82 7.07 7.07 0 003.91.93 11.94 11.94 0 004.49-.75zm8.54 2.63l1.46-3.65a15.3 15.3 0 007.4 1.76 18.6 18.6 0 003.93-.35 6.8 6.8 0 00.39-2.43 2.74 2.74 0 00-.93-2.25 9.08 9.08 0 00-3.39-1.36 22 22 0 01-4.32-1.43 6.77 6.77 0 01-2.73-2.23 6.36 6.36 0 01-1-3.74 6.9 6.9 0 012.1-5.2c1.4-1.34 3.56-2 6.47-2a16.36 16.36 0 014.14.45 13 13 0 013.14 1.28v1.41a13.72 13.72 0 01-.2 2.12 11.2 11.2 0 01-.46 2h-3.34l-.43-3.18a20.24 20.24 0 00-3.08-.23 5.1 5.1 0 00-3.11.74 2.88 2.88 0 00-1 2.43 2.56 2.56 0 001 2.2 11.6 11.6 0 003.84 1.37 13.16 13.16 0 015.73 2.41 5.91 5.91 0 011.85 4.66 6.85 6.85 0 01-2.11 5.27q-2.1 2-6.77 2a17.59 17.59 0 01-8.58-2.05zM145.62 11h4.29v10.5h9.93V11h4.28v24.22h-4.28V25.5h-9.93v9.72h-4.29zm26.17 22.55a7.45 7.45 0 01-2.26-5.86V11h4.29v15.83c0 1.8.38 3.05 1.15 3.75s2.08 1 3.95 1a15.08 15.08 0 005.33-.78V11h4.29v19.09a4.35 4.35 0 01-2.67 4.19 16.81 16.81 0 01-7.22 1.29c-3.07 0-5.35-.67-6.86-2.02zM209 35a3.45 3.45 0 01-1.33-1.54l-2.69-6a4.79 4.79 0 00-1.46-2.06 4.35 4.35 0 00-2.55-.61h-2.64v10.43H194V11h4.29v9.83h2.41a4.89 4.89 0 002.71-.62 4.35 4.35 0 001.46-1.88l3.13-7.57 4.13 1.45-3 6.82a8 8 0 01-1.48 2.31 5.73 5.73 0 01-2.34 1.3v.23a5.11 5.11 0 012.08 1.13 8.36 8.36 0 011.4 2l3.31 6.39 1.87.35v2.43a10.92 10.92 0 01-2.88.36A4.08 4.08 0 01209 35z" transform="translate(0 -.15)"/><path d="M217.8 34.77q2.28-8.63 5.2-17.77T228.65.61h9.57Q241 7.78 243.89 17t5.18 17.81l-6.46.45-1-4c-.74-2.92-1.32-5.1-1.72-6.56h-13q-1.66 6.11-2.67 10.53zm20.58-15.51q-2.67-9-4.06-12.94h-1.72q-1.89 5.32-4.12 12.94zM252.13.61h6.12v34.61h-6.12z" transform="translate(0 -.15)" fill="#ff4838"/></svg>